# xmcd
#
# Track frame offsets:
#	150
#	10927
#	23245
#	34345
#	46442
#	55753
#	66877
#	78044
#	87988
#	100866
#	110915
#	122352
#	132385
#	143012
#	153655
#	164088
#	175387
#	184604
#	200889
#	214522
#
# Disc length: 3016 seconds
#
# Revision: 1
# Processed by: cddbd v1.5.2PL0 Copyright (c) Steve Scherf et al.
# Submitted via: EZCDAudioConverter 6.0.8.1
#
DISCID=1c0bc614
DTITLE=Buck Owens - All-Time Greaest Hits
DYEAR=2010
DGENRE=Country
TTITLE0=Act Naturally
TTITLE1=Under Your Spell Again
TTITLE2=Above And Beyond
TTITLE3=Foolin' Around
TTITLE4=Love's Gonna Live Here
TTITLE5=My Heart Skips A Beat
TTITLE6=Together Again
TTITLE7=I Don't Care (Just As Long As You Love Me)
TTITLE8=Close Up The Honky Tonks
TTITLE9=I've Got A Tiger By The Tail
TTITLE10=Cryin' Time
TTITLE11=Before You Go
TTITLE12=Only You (Can Break My Heart)
TTITLE13=Waitin' In Your Welfare Line
TTITLE14=Think Of Me
TTITLE15=Open Up Your Heart
TTITLE16=Sam's Place
TTITLE17=Sweet Rosie Jones
TTITLE18=Tall Dark Stranger
TTITLE19=Streets Of Bakersfield
EXTD=
EXTT0=
EXTT1=
EXTT2=
EXTT3=
EXTT4=
EXTT5=
EXTT6=
EXTT7=
EXTT8=
EXTT9=
EXTT10=
EXTT11=
EXTT12=
EXTT13=
EXTT14=
EXTT15=
EXTT16=
EXTT17=
EXTT18=
EXTT19=
PLAYORDER=
